<svg width="20" height="20" viewBox="0 0 20 20" fill="none" xmlns="http://www.w3.org/2000/svg">
<g clip-path="url(#clip0)">
<path d="M19.6487 8.23002L0.820663 0.0487891C0.599921 -0.0471091 0.343046 0.00171891 0.172851 0.171875C0.00269547 0.34207 -0.0461326 0.599023 0.0497657 0.819725L8.231 19.6478C8.32436 19.8627 8.53608 20.0002 8.76823 20.0002C8.77928 20.0002 8.79041 19.9999 8.80147 19.9993C9.04651 19.9854 9.25694 19.8204 9.32869 19.5857L11.0831 13.8495C11.4889 12.5225 12.5234 11.488 13.8504 11.0821L19.5866 9.32776C19.8212 9.25596 19.9863 9.04553 20.0002 8.80053C20.0141 8.55553 19.8738 8.32784 19.6487 8.23002Z" fill="white"/>
</g>
<defs>
<clipPath id="clip0">
<rect width="20" height="20" fill="white"/>
</clipPath>
</defs>
</svg>
