<svg width="40" height="38" viewBox="0 0 40 38" fill="none" xmlns="http://www.w3.org/2000/svg">
<path d="M8.09239 27.8006C7.19686 26.1652 6.65768 24.3917 6.48997 22.5289C6.43809 21.9528 6.00521 21.4838 5.43524 21.3859C5.17228 21.3408 4.90847 21.3178 4.65146 21.3178C2.08667 21.3178 0 23.4045 0 25.9694C0 28.5342 2.08667 30.6209 4.65146 30.6209C5.84669 30.6209 6.98357 30.1651 7.85307 29.3372C8.27201 28.9385 8.37032 28.308 8.09239 27.8006Z" fill="#F7B081"/>
<path d="M35.3484 21.3179C35.0912 21.3179 34.8274 21.3409 34.5646 21.386C33.9946 21.4838 33.5618 21.9527 33.51 22.5288C33.3423 24.3916 32.8032 26.1652 31.9076 27.8008C31.6299 28.308 31.728 28.9385 32.1468 29.3374C33.0163 30.1652 34.1533 30.621 35.3484 30.621C37.9132 30.621 40 28.5344 40 25.9696C40 23.4046 37.9132 21.3179 35.3484 21.3179Z" fill="#E09C77"/>
<path d="M19.9999 5.17755C11.1125 5.17755 3.88211 12.4079 3.88211 21.2953C3.88211 30.1827 11.1125 37.4131 19.9999 37.4131C28.8874 37.4131 36.1176 30.1827 36.1176 21.2953C36.1176 12.4079 28.8874 5.17755 19.9999 5.17755Z" fill="#FFC89F"/>
<path d="M19.9999 5.17755C18.9872 5.17755 17.9962 5.27246 17.0347 5.45191C24.5107 6.84784 30.1873 13.4206 30.1873 21.2951C30.1873 29.1697 24.5105 35.7425 17.0347 37.1384C17.9962 37.318 18.987 37.4129 19.9999 37.4129C28.8875 37.4129 36.1177 30.1825 36.1177 21.2951C36.1177 12.4078 28.8875 5.17755 19.9999 5.17755Z" fill="#F7B081"/>
<path d="M14.0696 24.8885C12.9291 24.8885 12.0013 23.9607 12.0013 22.8204C12.0013 21.6799 12.9291 20.7521 14.0696 20.7521C15.21 20.7521 16.1379 21.6799 16.1379 22.8204C16.1379 23.9608 15.21 24.8885 14.0696 24.8885Z" fill="#464649"/>
<path d="M25.9303 24.8885C24.7898 24.8885 23.8622 23.9607 23.8622 22.8204C23.8622 21.6799 24.7898 20.7521 25.9303 20.7521C27.0707 20.7521 27.9986 21.6799 27.9986 22.8204C27.9986 23.9608 27.0707 24.8885 25.9303 24.8885Z" fill="#464649"/>
<path d="M19.291 7.72893C19.1807 7.72893 19.0698 7.71465 18.9606 7.68539C13.6472 6.26054 12.8422 1.67525 12.8105 1.48083C12.6972 0.785504 13.1692 0.129976 13.8646 0.0166955C14.5568 -0.0957343 15.2098 0.371502 15.3273 1.0619C15.349 1.18079 15.7322 3.12067 17.7358 4.40417C17.6669 3.39486 17.6736 2.19895 17.9107 1.12126C18.0622 0.433245 18.7431 -0.0016773 19.4308 0.149703C20.119 0.301254 20.5539 0.981787 20.4023 1.6698C20.0555 3.24518 20.3828 5.46316 20.5381 6.18485C20.6316 6.61944 20.4921 7.0712 20.1702 7.3777C19.9302 7.60596 19.6141 7.72893 19.291 7.72893Z" fill="#464649"/>
</svg>
