<svg width="25" height="25" viewBox="0 0 25 25" fill="none" xmlns="http://www.w3.org/2000/svg">
<path d="M24.4424 19.7328L20.5775 15.868C20.1936 15.4996 19.6791 15.2986 19.1472 15.3089C18.6152 15.3193 18.109 15.5402 17.7396 15.9232L15.7906 17.8667L15.4097 17.6569C11.9215 15.9008 9.09132 13.0687 7.33766 9.57935L7.12785 9.20942L8.43641 7.90642L9.07685 7.26044C9.45912 6.89033 9.679 6.38375 9.68832 5.85176C9.69763 5.31977 9.49563 4.8058 9.12656 4.42255L5.26172 0.557706C4.87846 0.188636 4.36448 -0.0134011 3.83249 -0.00408615C3.3005 0.00522884 2.79392 0.225133 2.42381 0.607394L1.31957 1.71163V1.74476C0.945927 2.22462 0.644586 2.75661 0.425141 3.32382C0.223773 3.8403 0.0883325 4.38012 0.0220699 4.93049C-0.485881 9.15421 1.44654 13.019 6.68616 18.2642C13.9355 25.508 19.7714 24.9614 20.0254 24.9338C20.5773 24.8662 21.1188 24.7309 21.6376 24.5308C22.2019 24.3088 22.7317 24.0076 23.2111 23.6363L24.3154 22.5321C24.6976 22.162 24.9175 21.6554 24.9269 21.1234C24.9362 20.5914 24.7341 20.0774 24.3651 19.6942L24.4424 19.7328Z" fill="#F2C94C"/>
</svg>
