<svg width="48" height="46" viewBox="0 0 48 46" fill="none" xmlns="http://www.w3.org/2000/svg">
<path d="M45.7365 8.91326C43.6444 5.45515 40.1682 3.23218 35.9483 2.65406C32.9471 2.2428 30.4926 3.04358 29.1166 3.67211C27.1096 1.28248 24.825 0 20.0869 0C14.6452 0 6.9317 2.82322 2.85525 9.02161C-1.88457 16.229 0.151346 24.7664 2.69398 30.6592C2.92934 31.2048 3.46127 31.5312 4.01995 31.5312L43.6061 31.3774C43.6061 31.3774 45.1832 31.26 45.454 30.51C49.5776 19.0907 47.8836 12.4626 45.7365 8.91326Z" fill="#6E563D"/>
<path d="M45.7608 9.06424C43.6687 5.60613 40.1925 3.38315 35.9727 2.80503C34.0565 2.54253 32.3648 2.77463 31.0327 3.14009C34.4835 4.02285 37.3173 6.08301 39.1209 9.06443C41.2681 12.6138 42.9622 19.2419 38.8386 30.6612C38.568 31.411 36.9907 31.5286 36.9907 31.5286H43.6306C43.6306 31.5286 45.2077 31.4112 45.4785 30.6612C49.6019 19.2417 47.908 12.6136 45.7608 9.06424Z" fill="#604B35"/>
<path d="M41.4239 27.4847C40.8774 27.4847 40.335 27.57 39.8125 27.738C39.2494 27.9191 38.854 28.4256 38.8143 29.0159C38.6825 30.9883 38.1681 32.88 37.2853 34.6386C37.0199 35.1677 37.1042 35.8051 37.4982 36.2467C38.4979 37.3676 39.9288 38.0105 41.4237 38.0105C44.3257 38.0105 46.6866 35.6496 46.6866 32.7476C46.6866 29.8457 44.3259 27.4847 41.4239 27.4847Z" fill="#E09C77"/>
<path d="M10.8301 34.6388C9.94758 32.8798 9.43316 30.9881 9.30133 29.0159C9.26188 28.4256 8.86621 27.9191 8.3031 27.738C7.78041 27.5698 7.23828 27.4847 6.69192 27.4847C3.78979 27.4847 1.42883 29.8457 1.42883 32.7476C1.42883 35.6496 3.78979 38.0105 6.69192 38.0105C8.18706 38.0105 9.61772 37.3678 10.6173 36.2469C11.0112 35.8053 11.0957 35.1679 10.8301 34.6388Z" fill="#F7B081"/>
<path d="M40.5402 23.6718C33.3951 22.4434 28.4504 15.1925 28.4022 15.1209C28.1055 14.6767 27.5888 14.4289 27.0584 14.4824C26.527 14.5362 26.0707 14.8746 25.8692 15.3692C25.8606 15.3898 24.9641 17.458 22.3326 19.4939C18.8177 22.2134 13.7994 23.6508 7.82004 23.6508C7.02292 23.6508 6.37668 24.297 6.37668 25.0942V28.0142C6.37668 37.7636 14.3085 45.6952 24.0577 45.6952C33.807 45.6952 41.7387 37.7636 41.7387 28.0142V25.0942C41.7389 24.3915 41.2328 23.7909 40.5402 23.6718Z" fill="#FFC89F"/>
<path d="M40.5402 23.6718C38.6729 23.3508 36.9578 22.6166 35.4391 21.7086V28.0144C35.4391 36.6898 29.1582 43.9247 20.905 45.4137C21.9283 45.5986 22.9819 45.6954 24.0577 45.6954C33.8072 45.6954 41.7388 37.7638 41.7388 28.0144V25.0944C41.7389 24.3915 41.2328 23.7909 40.5402 23.6718Z" fill="#F7B081"/>
<path d="M17.348 33.2567C16.0576 33.2567 15.0078 32.2071 15.0078 30.9167C15.0078 29.6263 16.0576 28.5765 17.348 28.5765C18.6384 28.5765 19.688 29.6263 19.688 30.9167C19.688 32.2069 18.6384 33.2567 17.348 33.2567Z" fill="#464649"/>
<path d="M30.7678 33.2567C29.4774 33.2567 28.4276 32.2071 28.4276 30.9167C28.4276 29.6263 29.4774 28.5765 30.7678 28.5765C32.0582 28.5765 33.108 29.6263 33.108 30.9167C33.1078 32.2069 32.0582 33.2567 30.7678 33.2567Z" fill="#464649"/>
</svg>
